<?xml version="1.0" encoding="utf-8"?>
<!-- Generator: Adobe Illustrator 16.0.0, SVG Export Plug-In . SVG Version: 6.00 Build 0)  -->
<!DOCTYPE svg PUBLIC "-//W3C//DTD SVG 1.1//EN" "http://www.w3.org/Graphics/SVG/1.1/DTD/svg11.dtd">
<svg version="1.1" xmlns="http://www.w3.org/2000/svg" xmlns:xlink="http://www.w3.org/1999/xlink" x="0px" y="0px"
	 width="525.914px" height="74.999px" viewBox="0 0 525.914 74.999" enable-background="new 0 0 525.914 74.999"
	 xml:space="preserve">
<g id="Layer_3">
</g>
<g id="Isolation_Mode">
	<g>
		<g>
			<g>
				<path fill="#FFFFFF" d="M291.992,73.636V48.334h28.193v25.302H291.992z"/>
			</g>
			<g>
				<path fill="#FFFFFF" d="M399.355,51.468c0,11.914-9.439,23.414-33.523,23.414c-18.066,0-29.297-3.429-34.768-5.2l6.432-19.59
					c7.658,2.345,19.576,4.128,28.062,4.128c5.059,0,7.375-1.11,7.375-3.844c0-1.643-1.346-2.992-4.225-2.992h-10.961
					c-13.562,0-26.82-4.672-26.82-20.821v-1.637C330.927,6.725,345.154,0,360.089,0c13.82,0,27.906,1.655,37.229,3.153
					l-6.582,19.722c-10.949-1.517-19.148-2.331-28.744-2.331c-3.691,0-4.639,2.184-4.639,3.422c0,1.912,1.221,3.414,3.406,3.414
					h10.547c13.01,0.146,28.049,3.422,28.049,21.769V51.468z"/>
			</g>
			<g>
				<path fill="#FFFFFF" d="M176.755,1.241l-9.433,49.291c0,0-3.438-13.741-8.081-31.9C154.62,0.483,140.138,2.331,140.138,2.331
					h-0.329c0,0-14.278-0.732-18.778,14.942c-4.493,15.682-8.388,33.259-8.388,33.259l-9.46-49.291h-24.45
					c0,0,5.456,34.932,11.315,54.506c5.835,19.571,18.885,17.889,18.885,17.889s18.464,2.693,24.157-18.562
					c4.888-18.226,6.429-25.392,6.869-27.694c0.472,2.303,2.018,9.469,6.897,27.694c5.709,21.255,24.166,18.562,24.166,18.562
					s13.037,1.683,18.896-17.889c5.835-19.574,11.291-54.506,11.291-54.506H176.755z"/>
			</g>
			<g>
				<path fill="#FFFFFF" d="M427.908,73.758l9.443-49.271c0,0,3.43,13.73,8.047,31.878c4.639,18.166,19.107,16.294,19.107,16.294
					h0.342c0,0,14.27,0.758,18.762-14.926c4.49-15.669,8.41-33.246,8.41-33.246l9.441,49.271h24.453c0,0-5.455-34.941-11.305-54.516
					c-5.832-19.557-18.891-17.885-18.891-17.885s-18.465-2.676-24.15,18.556c-4.875,18.238-6.434,25.385-6.891,27.704
					c-0.438-2.319-2.006-9.466-6.889-27.704c-5.689-21.232-24.17-18.556-24.17-18.556s-13.027-1.672-18.865,17.885
					c-5.852,19.575-11.332,54.516-11.332,54.516H427.908z"/>
			</g>
			<g>
				<g>
					<path fill="#FFFFFF" d="M40.922,0C31.527,0,12.888,0,8.362,0L4.339,20.678c3.662,0,25.129,0,33.031,0
						c4.254,0,5.621,1.224,6.024,3.421v2.749H30.254C11.373,26.848,0,35.183,0,51.468v2.06c0,12.459,8.362,21.354,24.904,21.354
						c8.081,0,14.502-2.053,22.599-5.478l1.648,4.231h21.064V25.207C70.215,5.891,59.815,0,40.922,0z M43.394,50.654
						c-1.373,0.407-9.571,3.296-13.139,3.296c-2.329,0-3.435-1.513-3.435-3.418v-3.147c0-2.205,1.383-4.128,5.073-4.798
						c3.549-0.418,8.484-0.418,11.5-0.418V50.654z"/>
				</g>
			</g>
			<g>
				<g>
					<path fill="#FFFFFF" d="M241.124,54.08c-4.38,0-6.71-1.643-6.71-5.346v-4.238h26.506h17.029V29.304
						C277.949,10.96,267.947,0,245.233,0h-4.923c-23.426,0-32.727,10.96-32.727,29.167v18.468c0,20.264,11.532,28.457,32.856,27.247
						c18.648-1.068,35.113-3.599,35.113-3.599l0.236-19.856C275.789,51.427,256.264,54.08,241.124,54.08z M234.414,24.519
						c0-3.56,2.33-4.931,7.25-4.931h2.21c4.785,0,7.389,1.371,7.389,4.931v4.785h-16.849V24.519z"/>
				</g>
			</g>
		</g>
	</g>
</g>
</svg>
